name c:\Users\T11648sTb\Documents\VSCODE\Pred_Sim_Sprinting\Pred_Sim_Sprinting\MainFunctions\ExperimentalData\IK_Splined\Splined_100_meshInts_p02_maxVel_01.mot
datacolumns 38
datarows 10
range 0.05600000 0.06087257
endheader
                time	/jointset/ground_pelvis/pelvis_tilt/value	/jointset/ground_pelvis/pelvis_list/value	/jointset/ground_pelvis/pelvis_rotation/value	/jointset/ground_pelvis/pelvis_tx/value	/jointset/ground_pelvis/pelvis_ty/value	/jointset/ground_pelvis/pelvis_tz/value	/jointset/hip_r/hip_flexion_r/value	/jointset/hip_r/hip_adduction_r/value	/jointset/hip_r/hip_rotation_r/value	/jointset/knee_r/knee_angle_r/value	/jointset/ankle_r/ankle_angle_r/value	/jointset/subtalar_r/subtalar_angle_r/value	/jointset/mtp_r/mtp_angle_r/value	/jointset/hip_l/hip_flexion_l/value	/jointset/hip_l/hip_adduction_l/value	/jointset/hip_l/hip_rotation_l/value	/jointset/knee_l/knee_angle_l/value	/jointset/ankle_l/ankle_angle_l/value	/jointset/subtalar_l/subtalar_angle_l/value	/jointset/mtp_l/mtp_angle_l/value	/jointset/back/lumbar_extension/value	/jointset/back/lumbar_bending/value	/jointset/back/lumbar_rotation/value	/jointset/acromial_r/arm_flex_r/value	/jointset/acromial_r/arm_add_r/value	/jointset/acromial_r/arm_rot_r/value	/jointset/elbow_r/elbow_flex_r/value	/jointset/radioulnar_r/pro_sup_r/value	/jointset/radius_hand_r/wrist_flex_r/value	/jointset/radius_hand_r/wrist_dev_r/value	/jointset/acromial_l/arm_flex_l/value	/jointset/acromial_l/arm_add_l/value	/jointset/acromial_l/arm_rot_l/value	/jointset/elbow_l/elbow_flex_l/value	/jointset/radioulnar_l/pro_sup_l/value	/jointset/radius_hand_l/wrist_flex_l/value	/jointset/radius_hand_l/wrist_dev_l/value	
          0.05600000	          4.99930159	         -1.46373305	         -0.25776319	         -1.87121466	          1.00263233	          0.28681654	         29.24026972	         -0.78652057	         -2.37914183	        -32.26936812	        -11.66866834	        -12.48869523	          3.45205773	         19.23433415	         -1.10140012	        -11.55804968	       -133.53295380	        -15.01130516	        -13.52683631	         11.45083895	        -26.72652122	          7.05731329	         -5.71782780	        -21.09382145	        -14.33369720	         -4.39168812	        101.58231768	         65.50953991	         -8.37888651	          6.78380357	        -15.45028272	        -14.55228340	         -2.22961543	         58.51448841	         69.95154621	         -3.37224652	         11.19789332	
          0.05634731	          5.07326926	         -1.47546424	         -0.39779151	         -1.86780490	          1.00250574	          0.28713160	         28.95685600	         -0.72148374	         -2.33429975	        -32.21763590	        -11.56527791	        -12.43499741	          3.37098186	         19.38458660	         -1.21704891	        -11.67699345	       -133.69364520	        -14.90510218	        -13.44750570	         11.48336692	        -26.80452062	          6.96530916	         -5.69375101	        -20.68032858	        -14.33634793	         -4.00417166	        101.60953261	         65.57483608	         -8.41802413	          6.83549712	        -15.71036949	        -14.54384632	         -2.30587181	         58.29002457	         69.91762198	         -3.35451928	         11.27715204	
          0.05744469	          5.30396252	         -1.50984654	         -0.83609713	         -1.85702422	          1.00209825	          0.28812108	         28.06508722	         -0.52173572	         -2.19607914	        -32.06197432	        -11.20865377	        -12.26273784	          3.10819027	         19.86369570	         -1.57900840	        -12.04971733	       -134.19862714	        -14.57241035	        -13.20224050	         11.58429823	        -27.04473174	          6.67348390	         -5.62345823	        -19.37453068	        -14.34078985	         -2.78207572	        101.69217594	         65.77678387	         -8.54265797	          6.99964288	        -16.53546122	        -14.51298285	         -2.55773284	         57.58426733	         69.82060100	         -3.29767757	         11.52947994	
          0.05824000	          5.46789632	         -1.53178946	         -1.14965108	         -1.84920395	          1.00179461	          0.28883201	         27.42294444	         -0.38319107	         -2.09917745	        -31.95760545	        -10.91916229	        -12.13511443	          2.91112537	         20.21571468	         -1.83770600	        -12.31679132	       -134.56145163	        -14.33451446	        -13.03070433	         11.65549306	        -27.21213085	          6.46059647	         -5.57810248	        -18.42917619	        -14.33959870	         -1.89960810	        101.74892595	         65.91810355	         -8.63399609	          7.11942993	        -17.13680200	        -14.48623467	         -2.75155301	         57.07686790	         69.76147281	         -3.25555521	         11.71432009	
          0.05826263	          5.47251589	         -1.53237265	         -1.15851907	         -1.84898138	          1.00178586	          0.28885216	         27.40473379	         -0.37933414	         -2.09646074	        -31.95475107	        -10.91051768	        -12.13144615	          2.90543439	         20.22579496	         -1.84501737	        -12.32435058	       -134.57172907	        -14.32779130	        -13.02591228	         11.65749234	        -27.21680286	          6.45451955	         -5.57688190	        -18.40229783	        -14.33950348	         -1.87455333	        101.75050211	         65.92205258	         -8.63660792	          7.12284845	        -17.15395327	        -14.48541578	         -2.75721546	         57.06249154	         69.75994432	         -3.25434401	         11.71960456	
          0.05860994	          5.54310152	         -1.54102045	         -1.29427071	         -1.84556429	          1.00165066	          0.28916079	         27.12563048	         -0.32075148	         -2.05503680	        -31.91178027	        -10.77486978	        -12.07486369	          2.81747631	         20.38101104	         -1.95689501	        -12.44011048	       -134.72915308	        -14.22492395	        -12.95301430	         11.68799058	        -27.28785652	          6.36108284	         -5.55863474	        -17.98984494	        -14.33758611	         -1.49036218	        101.77443130	         65.98213453	         -8.67679587	          7.17539889	        -17.41753691	        -14.47242654	         -2.84520494	         56.84225852	         69.73761710	         -3.23565679	         11.80090809	
          0.05970731	          5.76183934	         -1.56429602	         -1.71846534	         -1.83475987	          1.00121230	          0.29012840	         26.24954323	         -0.14385321	         -1.92757078	        -31.78714734	        -10.30805827	        -11.89248791	          2.53192568	         20.87783072	         -2.30578660	        -12.80238555	       -135.22202557	        -13.90436502	        -12.73159541	         11.78185779	        -27.50365665	          6.06372317	         -5.50708187	        -16.68854239	        -14.32543790	         -0.28215041	        101.84679031	         66.16473576	         -8.80501853	          7.34240905	        -18.25432828	        -14.42594582	         -3.13705758	         56.15246131	         69.68213687	         -3.17534235	         12.06020802	
          0.06050263	          5.91590308	         -1.57689388	         -2.02122426	         -1.82692184	          1.00088283	          0.29082201	         25.62072378	         -0.02420193	         -1.83842035	        -31.70844341	         -9.93085968	        -11.75658149	          2.31740347	         21.24461050	         -2.55391889	        -13.06151743	       -135.57437816	        -13.67677552	        -12.58068565	         11.84731480	        -27.65102330	          5.84586761	         -5.47561223	        -15.74759425	        -14.31017526	          0.58704782	        101.89617915	         66.28930742	         -8.89921419	          7.46442111	        -18.86476641	        -14.38670716	         -3.36263380	         55.65909027	         69.65776659	         -3.13028576	         12.25058654	
          0.06052525	          5.92022703	         -1.57719527	         -2.02977815	         -1.82669876	          1.00087329	          0.29084164	         25.60291625	         -0.02091119	         -1.83592363	        -31.70635826	         -9.91962335	        -11.75266586	          2.31120401	         21.25513439	         -2.56091623	        -13.06884620	       -135.58433684	        -13.67036417	        -12.57652152	         11.84914324	        -27.65509662	          5.83963757	         -5.47479044	        -15.72085538	        -14.30965454	          0.61168565	        101.89754703	         66.29274646	         -8.90191047	          7.46790476	        -18.88218410	        -14.38551852	         -3.36923377	         55.64514328	         69.65728414	         -3.12898596	         12.25603454	
          0.06087257	          5.98617201	         -1.58140699	         -2.16065987	         -1.82327376	          1.00072586	          0.29114231	         25.33016795	          0.02878126	         -1.79787287	        -31.67546614	         -9.74352233	        -11.69220545	          2.21535842	         21.41732417	         -2.66788004	        -13.18103653	       -135.73672302	        -13.57241236	        -12.51354761	         11.87696635	        -27.71676054	          5.74376895	         -5.46269080	        -15.31064149	        -14.30103085	          0.98920309	        101.91828690	         66.34476720	         -8.94341662	          7.52146772	        -19.14990997	        -14.36675347	         -3.47185098	         55.43171110	         69.65141061	         -3.10890296	         12.33988972	
